<?xml version="1.0" encoding="UTF-8"?>
<!DOCTYPE svg PUBLIC "-//W3C//DTD SVG 1.1//EN" "http://www.w3.org/Graphics/SVG/1.1/DTD/svg11.dtd">
<!-- Creator: CorelDRAW X6 -->
<svg xmlns="http://www.w3.org/2000/svg" xml:space="preserve" width="59.3725mm" height="20.1083mm" version="1.1" style="shape-rendering:geometricPrecision; text-rendering:geometricPrecision; image-rendering:optimizeQuality; fill-rule:evenodd; clip-rule:evenodd"
viewBox="0 0 14475 4902"
 xmlns:xlink="http://www.w3.org/1999/xlink">
 <defs>
  <style type="text/css">
   <![CDATA[
    .fil1 {fill:none}
    .fil0 {fill:#20b6c1;fill-rule:nonzero}
   ]]>
  </style>
 </defs>
 <g id="Warstwa_x0020_1">
  <metadata id="CorelCorpID_0Corel-Layer"/>
  <g id="_664824496">
   <path class="fil0" d="M5061 2679c-45,69 -62,105 -37,186 11,38 44,63 94,74 8,2 16,3 24,3 26,0 54,-9 85,-28 204,-123 -33,-440 -166,-234zm-3141 -536c21,-104 132,-523 184,-717 25,-8 48,-15 71,-23 54,-17 105,-34 158,-49 80,-23 162,-41 245,-56 83,-14 169,-24 257,-28 88,-4 187,-5 288,-2 617,29 928,307 455,878 -95,114 -205,214 -328,298 -123,83 -257,152 -397,203 -141,51 -281,92 -414,120 -133,28 -260,46 -377,51 -99,5 -184,5 -252,-1 21,-139 93,-589 111,-675zm-1083 -130c5,24 15,44 28,58 19,21 47,26 78,8 21,-13 28,-30 31,-41 4,-14 4,-28 0,-42 -1,-4 -1,-8 0,-13 1,-3 3,-11 12,-24 27,-29 69,-64 126,-102 59,-40 129,-81 208,-124 79,-43 167,-84 260,-125 84,-36 170,-68 257,-97 -35,127 -122,450 -158,688 -30,197 -59,340 -90,600 -73,-5 -227,-14 -399,-32 77,168 254,215 373,231 -11,66 -12,99 -20,165 -9,74 -18,141 -26,201l-27 210c-11,53 -15,96 -11,133 3,37 12,72 27,106 17,39 49,66 94,81 34,12 60,17 79,17 3,0 6,0 9,0 39,-3 53,-26 57,-38 4,-10 4,-23 4,-98 0,-30 0,-61 0,-83 2,-52 5,-115 10,-187 5,-74 10,-156 15,-245 4,-77 10,-153 16,-227 65,3 149,1 253,-6 122,-9 259,-30 407,-64 148,-33 305,-80 465,-138 161,-58 317,-134 462,-226 146,-92 277,-204 389,-331 407,-462 355,-918 -285,-1129 -111,-37 -256,-59 -347,-67 -62,-5 -158,-5 -282,2 -82,4 -161,12 -235,22 -74,10 -152,25 -231,44 -63,15 -134,34 -210,56 3,-13 5,-23 5,-32 2,-24 -1,-43 -10,-58 -9,-16 -24,-27 -41,-32 -5,-1 -17,-7 -31,-12 -17,-7 -35,-14 -42,-16 -21,-6 -41,-6 -60,1 -19,7 -35,21 -49,44 -12,19 -22,49 -29,90 -4,13 -8,29 -11,48 -2,13 -6,29 -11,47 -66,22 -128,42 -184,62 -61,22 -125,46 -188,72 -64,27 -130,57 -197,90 -66,33 -140,72 -219,115 -61,32 -121,68 -177,106 -63,43 -100,103 -110,180 -1,14 0,32 2,55 3,21 6,42 11,61zm2408 1443c2,-32 7,-64 15,-98 18,-73 41,-141 71,-204 29,-62 60,-114 91,-154 36,-46 52,-46 53,-46l0 0c5,1 7,1 9,9 3,16 2,37 -2,61 -5,26 -14,56 -28,89l-43 103c-24,50 -58,106 -101,166 -4,5 -44,54 -63,75zm3804 -1219c-13,-10 -30,-17 -49,-21 -17,-4 -38,-4 -61,-1l-645 4 17 -90c6,-25 4,-57 -6,-97 -11,-46 -33,-75 -64,-84 -17,-6 -32,-9 -46,-9 -32,0 -51,16 -61,29 -34,45 -68,189 -83,247 -664,-4 -666,191 -49,191l-47 190c-20,81 -39,160 -58,237 -80,336 -59,405 -305,681 -51,57 -106,108 -163,150 -53,39 -106,61 -158,63 -46,2 -80,-7 -102,-30 -25,-24 -40,-54 -46,-91 -7,-40 -9,-86 -4,-137 5,-52 12,-101 21,-146 9,-45 19,-84 29,-117 16,-53 16,-56 17,-61 3,-40 -15,-62 -31,-75 -19,-14 -40,-22 -65,-24 -24,-2 -49,3 -72,14 -25,12 -44,31 -58,58l-3 8c-28,123 -148,283 -233,377 -46,51 -97,93 -152,126 -45,27 -92,40 -142,40 -8,0 -16,0 -25,-1 -33,-2 -57,-17 -75,-48 -22,-35 -37,-77 -45,-123 -8,-49 -12,-98 -12,-147 0,-49 3,-88 8,-118 5,-28 15,-70 30,-128 15,-58 145,-558 155,-602 7,-34 15,-66 22,-96 955,0 1314,-195 46,-187l17 -90c6,-26 4,-57 -6,-97 -11,-46 -33,-75 -63,-84 -17,-6 -32,-9 -46,-9 -32,0 -51,16 -61,29 -23,30 -49,109 -83,248 -91,1 -328,5 -350,7 -23,3 -45,9 -64,18 -16,7 -43,26 -47,72 -2,26 8,49 30,64 14,10 29,18 48,26 20,7 45,10 76,10l0 0 259 -6 -47 189c-20,81 -39,160 -58,237 -78,329 -73,413 -320,676 -54,57 -114,106 -178,147 -62,38 -129,58 -201,58 -47,0 -86,-9 -117,-28 135,-156 417,-572 363,-791 -12,-47 -43,-88 -93,-121 -64,-44 -134,-49 -202,-13 -62,33 -118,84 -167,153 -47,67 -88,141 -122,221 -34,80 -55,152 -64,212 -8,60 -11,123 -7,188 1,28 5,56 12,84 -226,128 -430,28 -567,-174l-32 -48c-44,294 187,457 352,468 109,6 211,-16 302,-64 8,-4 15,-9 22,-13 26,34 55,62 89,84 60,39 143,61 247,64 87,0 171,-26 250,-77 75,-49 144,-105 203,-168 59,-62 107,-123 143,-181 2,-4 4,-7 7,-10 4,35 10,68 18,100 17,70 49,131 95,181 48,53 118,81 206,84 92,6 177,-12 253,-54 72,-41 136,-88 189,-142 26,-26 49,-52 70,-78 6,38 16,77 31,116 23,60 59,113 108,158 51,47 124,72 216,72 85,0 166,-27 242,-80 73,-50 139,-108 196,-172 54,-60 100,-118 136,-173 4,31 9,60 16,89 17,70 49,131 95,181 298,326 811,-166 851,-635 -45,69 -244,525 -591,525 -8,0 -16,0 -25,-1 -33,-2 -57,-17 -75,-48 -22,-35 -37,-77 -45,-123 -8,-49 -12,-98 -12,-147 0,-49 3,-88 8,-118 5,-28 16,-72 30,-128 15,-58 31,-117 48,-178 0,0 97,-381 107,-424 7,-34 15,-66 22,-96l643 0c29,0 56,-3 80,-10 20,-6 38,-14 56,-24 16,-9 37,-28 45,-64l1 -5c3,-36 -12,-56 -25,-66z"/>
   <path class="fil0" d="M11890 2904c8,2 16,3 24,3 26,0 54,-9 86,-29 131,-79 87,-299 -38,-299l-5 0c-28,2 -83,16 -115,52 -26,28 -44,52 -54,99 -9,45 -4,69 5,98 8,27 31,61 96,75zm-2113 398c-22,60 -50,121 -83,181 -32,60 -68,113 -107,157 -34,39 -68,59 -99,59 -16,0 -26,-6 -36,-21 -13,-19 -21,-45 -24,-78 -4,-35 -2,-77 5,-124 7,-48 18,-97 34,-145 15,-48 35,-95 59,-141 24,-45 50,-85 78,-120 27,-34 56,-60 86,-79 27,-17 53,-26 79,-26 20,2 45,7 57,21 62,74 -21,238 -49,314zm3759 -3c-96,-91 -183,-169 -272,-270 -115,-133 -129,-202 -129,-245 3,-31 1,-61 -4,-90 -6,-32 -19,-60 -39,-83 -23,-27 -58,-40 -106,-40 -55,0 -94,25 -114,73 -15,35 -32,77 -50,123 -4,8 -14,34 -34,83 -36,89 -90,224 -113,271 -97,196 -142,251 -240,369 -52,58 -108,109 -166,152 -54,40 -109,62 -161,64 -47,3 -81,-7 -105,-30 -25,-25 -41,-55 -47,-93 -7,-41 -9,-88 -4,-139 5,-53 12,-103 22,-148 10,-46 20,-86 30,-119 17,-54 17,-57 17,-62 4,-40 -15,-63 -31,-75 -19,-14 -41,-22 -66,-24 -25,-2 -49,3 -73,14 -25,12 -45,32 -59,59 -82,226 -16,184 -198,391 -47,54 -98,100 -151,138 -49,35 -97,53 -143,53 -96,0 -117,-44 -125,-77 -15,-64 -18,-141 -7,-232 4,-45 10,-79 17,-103 8,-25 16,-45 24,-61 9,-17 17,-32 25,-47 11,-18 19,-42 25,-72 6,-29 8,-52 9,-72 0,-20 -2,-41 -7,-61 -6,-26 -21,-46 -43,-60 -58,-34 -116,-31 -164,-16 -22,6 -42,15 -60,25 -15,8 -25,14 -30,17 -1,1 -6,3 -20,6 1,-2 2,-4 5,-7 19,-24 30,-50 32,-77 1,-11 0,-25 -1,-42 -2,-18 -7,-35 -14,-53 -8,-18 -19,-35 -33,-51 -18,-19 -40,-30 -66,-30 -27,-3 -54,7 -78,31 -20,20 -38,46 -52,78 -14,29 -25,63 -35,100 -9,37 -16,74 -19,111 -2,21 -20,90 -24,103 -47,176 -199,377 -331,491 -88,75 -162,113 -222,113 -88,0 -104,-39 -109,-52 -17,-43 -23,-93 -17,-148 6,-49 23,-136 44,-223 76,-216 17,-479 -236,-490 -40,0 -87,12 -142,36 -54,23 -109,61 -162,112 -54,51 -104,116 -150,195 -47,79 -81,173 -102,278 -25,106 -31,195 -20,264 11,70 32,125 61,164 30,40 64,68 101,82 35,13 65,19 87,20 46,4 93,-13 141,-48 43,-32 81,-67 115,-104 22,-26 45,-54 68,-86 8,24 18,47 31,69 23,35 53,69 91,100 38,32 91,48 158,48 6,0 13,0 18,0 68,0 138,-23 207,-69 66,-44 128,-95 184,-152 56,-57 106,-114 148,-171 42,-56 89,-132 91,-135 37,-61 91,-194 96,-214 1,-2 2,-4 2,-5 1,0 2,0 4,1 26,8 56,13 89,13 22,0 41,-6 56,-18 9,-7 16,-13 22,-18 -5,13 -11,29 -17,49 -8,25 -18,56 -28,91 -11,38 -18,84 -19,134 -2,22 -2,58 0,106 2,50 12,102 31,153 20,53 54,102 101,145 48,43 132,72 211,72 84,-1 170,-25 235,-67 71,-45 135,-98 190,-157 14,-15 28,-31 42,-47 6,25 13,50 23,74 23,61 61,114 110,160 52,48 126,73 220,73 86,0 169,-27 246,-81 74,-51 141,-110 200,-175 58,-64 107,-126 144,-184 84,-115 131,-210 149,-246l1 -2c67,-126 113,-225 145,-316 19,49 46,110 77,166 101,179 239,260 343,408 16,23 22,52 21,97 -1,40 -47,94 -87,117 -52,31 -103,35 -130,35 -6,0 -11,0 -15,-1 -52,-3 -123,-18 -166,-44 -72,-40 -109,-61 -196,-137 -26,159 131,374 384,380 73,2 148,-12 215,-42 51,-23 94,-53 129,-89 34,-36 60,-73 78,-112 17,-38 28,-71 31,-99 5,-52 0,-126 -25,-176 -22,-43 -51,-82 -88,-117zm-5366 -356c21,-141 112,-765 130,-853 22,-106 135,-532 188,-729 25,-8 49,-16 73,-23 55,-18 106,-34 161,-50 81,-23 165,-42 249,-57 84,-14 172,-24 262,-28 90,-4 190,-5 293,-2 1900,90 -454,1815 -1356,1742zm1614 -392c149,-94 282,-207 396,-336 423,-478 359,-934 -290,-1147 -113,-37 -261,-60 -353,-68 -63,-5 -161,-5 -288,2 -83,4 -164,12 -239,22 -75,10 -154,25 -235,45 -65,15 -137,34 -215,57 3,-13 5,-24 6,-33 2,-25 -1,-44 -10,-59 -9,-16 -24,-27 -42,-32 -5,-1 -18,-7 -31,-12 -17,-7 -35,-14 -43,-16 -21,-6 -42,-6 -60,0 -19,7 -36,22 -50,44 -13,20 -22,50 -29,91 -4,13 -8,29 -11,49 -2,14 -6,30 -11,48 -67,22 -130,43 -187,63 -63,22 -127,47 -191,73 -65,27 -132,57 -200,91 -67,34 -143,73 -223,117 -63,33 -124,69 -180,108 -64,43 -102,104 -112,183 -1,14 0,32 3,55 3,21 6,42 11,62 6,25 15,44 28,59 19,21 47,26 79,8 21,-13 29,-30 32,-41 4,-14 4,-28 0,-42 -1,-4 -1,-8 0,-14 1,-3 4,-11 13,-25 28,-30 71,-65 128,-103 60,-40 131,-83 212,-126 81,-43 170,-86 265,-127 86,-37 174,-70 263,-99 -66,236 -596,2312 -244,2422 34,12 61,18 81,18 3,0 6,0 9,0 39,-4 53,-26 58,-39 4,-10 4,-23 4,-99 0,-31 0,-63 0,-85 2,-53 5,-117 10,-190 5,-75 10,-158 15,-249 4,-79 10,-156 16,-232 20,1 42,2 65,1l0 0c54,0 119,-3 193,-8 124,-9 264,-31 415,-65 151,-34 311,-81 474,-140 164,-59 323,-137 471,-230z"/>
  </g>
  <rect class="fil1" width="14475" height="4902"/>
 </g>
</svg>
